<svg width="54" height="40" viewBox="0 0 54 40" fill="none" xmlns="http://www.w3.org/2000/svg">
<g id="Speaker">
<path id="&#244;&#128;&#138;&#167;" opacity="0.5" d="M35.1047 32.8043C34.4885 32.3971 34.1291 31.8542 34.0264 31.1755C33.9408 30.4969 34.1377 29.7928 34.6169 29.0633C35.3186 28.0453 35.8663 26.8916 36.26 25.6022C36.6536 24.2958 36.8504 22.93 36.8504 21.5049C36.8504 20.0797 36.6536 18.714 36.26 17.4076C35.8834 16.1012 35.3357 14.9475 34.6169 13.9465C34.1205 13.2339 33.9237 12.5383 34.0264 11.8597C34.1291 11.1641 34.4885 10.6127 35.1047 10.2055C35.6524 9.8492 36.2428 9.73043 36.8761 9.8492C37.5094 9.96796 38.0143 10.2988 38.3908 10.8417C39.4349 12.216 40.2478 13.8362 40.8298 15.7025C41.4117 17.5518 41.7026 19.4859 41.7026 21.5049C41.7026 23.5238 41.4117 25.458 40.8298 27.3073C40.2478 29.1566 39.4349 30.7683 38.3908 32.1426C38.0143 32.7025 37.5094 33.0418 36.8761 33.1606C36.2428 33.2624 35.6524 33.1436 35.1047 32.8043ZM45.3482 39.5992C44.7492 39.2259 44.4069 38.7085 44.3213 38.0468C44.2357 37.3681 44.4154 36.698 44.8604 36.0363C46.2125 34.0343 47.2651 31.7863 48.0182 29.2923C48.7713 26.7983 49.1478 24.2025 49.1478 21.5049C49.1478 18.8073 48.7713 16.2115 48.0182 13.7175C47.2822 11.2065 46.2296 8.95848 44.8604 6.97345C44.3983 6.31177 44.21 5.6501 44.2956 4.98842C44.3983 4.30978 44.7492 3.78383 45.3482 3.41058C45.9301 3.03733 46.5377 2.91856 47.171 3.05429C47.8214 3.17305 48.3434 3.52086 48.737 4.0977C50.4143 6.42205 51.7065 9.10269 52.6137 12.1396C53.5379 15.1596 54 18.2813 54 21.5049C54 24.7284 53.5379 27.8502 52.6137 30.8701C51.6894 33.8731 50.3972 36.5538 48.737 38.912C48.3434 39.4889 47.8214 39.8367 47.171 39.9555C46.5377 40.0742 45.9301 39.9555 45.3482 39.5992Z" fill="black"/>
<path id="&#244;&#128;&#138;&#167;_2" d="M26.8356 40C26.2142 40 25.6255 39.8765 25.0695 39.6296C24.5135 39.3972 23.933 39.0268 23.3279 38.5184L13.0744 29.8905C12.9109 29.7743 12.7228 29.7162 12.5102 29.7162H5.54375C3.76124 29.7162 2.38757 29.2804 1.42273 28.4089C0.474244 27.5374 0 26.252 0 24.5525V16.4693C0 14.7844 0.474244 13.5061 1.42273 12.6346C2.38757 11.7631 3.76124 11.3274 5.54375 11.3274H12.5102C12.7228 11.3274 12.9109 11.262 13.0744 11.1313L23.3279 2.61229C24.0147 2.04581 24.6116 1.63911 25.1186 1.39218C25.6255 1.13073 26.1815 1 26.7866 1C27.7351 1 28.5037 1.28324 29.0924 1.84972C29.6975 2.4162 30 3.10615 30 3.91955V37.1894C30 37.9883 29.7056 38.6564 29.1169 39.1939C28.5282 39.7313 27.7678 40 26.8356 40Z" fill="black"/>
</g>
</svg>
