<svg width="27" height="13" viewBox="0 0 27 13" fill="none" xmlns="http://www.w3.org/2000/svg">
<g id="Battery Icon">
<g id="Combined Shape" opacity="0.4">
<mask id="path-1-inside-1_107_11" fill="white">
<path fill-rule="evenodd" clip-rule="evenodd" d="M5.7 1.5H19.3C20.2266 1.5 20.8614 1.50078 21.3532 1.54096C21.8333 1.58018 22.0883 1.65192 22.2715 1.74524C22.6948 1.96095 23.039 2.30516 23.2548 2.72852C23.3481 2.91166 23.4198 3.16673 23.459 3.64684C23.4992 4.13862 23.5 4.77341 23.5 5.7V7.3C23.5 8.22659 23.4992 8.86138 23.459 9.35316C23.4198 9.83327 23.3481 10.0883 23.2548 10.2715C23.039 10.6948 22.6948 11.039 22.2715 11.2548C22.0883 11.3481 21.8333 11.4198 21.3532 11.459C20.8614 11.4992 20.2266 11.5 19.3 11.5H5.7C4.77341 11.5 4.13862 11.4992 3.64684 11.459C3.16673 11.4198 2.91166 11.3481 2.72852 11.2548C2.30516 11.039 1.96095 10.6948 1.74524 10.2715C1.65192 10.0883 1.58018 9.83327 1.54096 9.35316C1.50078 8.86138 1.5 8.22659 1.5 7.3V5.7C1.5 4.77341 1.50078 4.13862 1.54096 3.64684C1.58018 3.16673 1.65192 2.91166 1.74524 2.72852C1.96095 2.30516 2.30516 1.96095 2.72852 1.74524C2.91166 1.65192 3.16673 1.58018 3.64684 1.54096C4.13862 1.50078 4.77341 1.5 5.7 1.5ZM0.5 5.7C0.5 3.87983 0.5 2.96974 0.854229 2.27453C1.16582 1.663 1.663 1.16582 2.27453 0.854229C2.96974 0.5 3.87983 0.5 5.7 0.5H19.3C21.1202 0.5 22.0303 0.5 22.7255 0.854229C23.337 1.16582 23.8342 1.663 24.1458 2.27453C24.5 2.96974 24.5 3.87983 24.5 5.7V7.3C24.5 9.12017 24.5 10.0303 24.1458 10.7255C23.8342 11.337 23.337 11.8342 22.7255 12.1458C22.0303 12.5 21.1202 12.5 19.3 12.5H5.7C3.87983 12.5 2.96974 12.5 2.27453 12.1458C1.663 11.8342 1.16582 11.337 0.854229 10.7255C0.5 10.0303 0.5 9.12017 0.5 7.3V5.7ZM27 6.5C27 5.56808 26.3626 4.78503 25.5 4.56301V8.43699C26.3626 8.21497 27 7.43192 27 6.5Z"/>
</mask>
<path d="M21.3532 1.54096L21.2717 2.53764L21.3532 1.54096ZM22.2715 1.74524L21.8175 2.63624L21.8175 2.63624L22.2715 1.74524ZM23.2548 2.72852L24.1458 2.27453L24.1458 2.27453L23.2548 2.72852ZM23.459 3.64684L22.4624 3.72827V3.72827L23.459 3.64684ZM23.459 9.35316L22.4624 9.27173V9.27173L23.459 9.35316ZM23.2548 10.2715L24.1458 10.7255L24.1458 10.7255L23.2548 10.2715ZM22.2715 11.2548L21.8175 10.3638L21.8175 10.3638L22.2715 11.2548ZM21.3532 11.459L21.4346 12.4557L21.3532 11.459ZM3.64684 11.459L3.56541 12.4557L3.56541 12.4557L3.64684 11.459ZM2.72852 11.2548L3.18251 10.3638L3.18251 10.3638L2.72852 11.2548ZM1.74524 10.2715L0.854229 10.7255L0.854229 10.7255L1.74524 10.2715ZM1.54096 9.35316L2.53764 9.27173V9.27173L1.54096 9.35316ZM1.54096 3.64684L2.53764 3.72827L1.54096 3.64684ZM1.74524 2.72852L2.63624 3.18251L2.63624 3.18251L1.74524 2.72852ZM2.72852 1.74524L3.18251 2.63624L3.18251 2.63624L2.72852 1.74524ZM3.64684 1.54096L3.72827 2.53764H3.72827L3.64684 1.54096ZM0.854229 2.27453L1.74524 2.72852L0.854229 2.27453ZM2.27453 0.854229L2.72852 1.74524L2.27453 0.854229ZM22.7255 0.854229L23.1795 -0.0367776V-0.0367777L22.7255 0.854229ZM24.1458 2.27453L23.2548 2.72852V2.72852L24.1458 2.27453ZM24.1458 10.7255L23.2548 10.2715L24.1458 10.7255ZM22.7255 12.1458L22.2715 11.2548L22.7255 12.1458ZM2.27453 12.1458L2.72852 11.2548H2.72852L2.27453 12.1458ZM0.854229 10.7255L-0.0367777 11.1795L-0.0367776 11.1795L0.854229 10.7255ZM25.5 4.56301L25.7493 3.59457L24.5 3.27303V4.56301H25.5ZM25.5 8.43699H24.5V9.72696L25.7493 9.40543L25.5 8.43699ZM19.3 0.5H5.7V2.5H19.3V0.5ZM21.4346 0.544279C20.8926 0.499992 20.2097 0.5 19.3 0.5V2.5C20.2435 2.5 20.8302 2.50156 21.2717 2.53764L21.4346 0.544279ZM22.7255 0.85423C22.3776 0.676994 21.9761 0.588523 21.4346 0.544279L21.2717 2.53764C21.6904 2.57184 21.7991 2.62685 21.8175 2.63624L22.7255 0.85423ZM24.1458 2.27453C23.8342 1.663 23.337 1.16582 22.7255 0.854229L21.8175 2.63624C22.0527 2.75608 22.2439 2.94731 22.3638 3.18251L24.1458 2.27453ZM24.4557 3.56541C24.4115 3.02388 24.323 2.62237 24.1458 2.27453L22.3638 3.18251C22.3732 3.20095 22.4282 3.30959 22.4624 3.72827L24.4557 3.56541ZM24.5 5.7C24.5 4.79033 24.5 4.10745 24.4557 3.56541L22.4624 3.72827C22.4984 4.16978 22.5 4.7565 22.5 5.7H24.5ZM24.5 7.3V5.7H22.5V7.3H24.5ZM24.4557 9.43459C24.5 8.89255 24.5 8.20967 24.5 7.3H22.5C22.5 8.2435 22.4984 8.83022 22.4624 9.27173L24.4557 9.43459ZM24.1458 10.7255C24.323 10.3776 24.4115 9.97612 24.4557 9.43459L22.4624 9.27173C22.4282 9.69041 22.3732 9.79905 22.3638 9.81749L24.1458 10.7255ZM22.7255 12.1458C23.337 11.8342 23.8342 11.337 24.1458 10.7255L22.3638 9.81749C22.2439 10.0527 22.0527 10.2439 21.8175 10.3638L22.7255 12.1458ZM21.4346 12.4557C21.9761 12.4115 22.3776 12.323 22.7255 12.1458L21.8175 10.3638C21.7991 10.3732 21.6904 10.4282 21.2717 10.4624L21.4346 12.4557ZM19.3 12.5C20.2097 12.5 20.8926 12.5 21.4346 12.4557L21.2717 10.4624C20.8302 10.4984 20.2435 10.5 19.3 10.5V12.5ZM5.7 12.5H19.3V10.5H5.7V12.5ZM3.56541 12.4557C4.10745 12.5 4.79033 12.5 5.7 12.5V10.5C4.7565 10.5 4.16978 10.4984 3.72827 10.4624L3.56541 12.4557ZM2.27453 12.1458C2.62237 12.323 3.02389 12.4115 3.56541 12.4557L3.72827 10.4624C3.30958 10.4282 3.20095 10.3732 3.18251 10.3638L2.27453 12.1458ZM0.854229 10.7255C1.16582 11.337 1.663 11.8342 2.27453 12.1458L3.18251 10.3638C2.94731 10.2439 2.75608 10.0527 2.63624 9.81749L0.854229 10.7255ZM0.544279 9.43459C0.588523 9.97612 0.676994 10.3776 0.854229 10.7255L2.63624 9.81749C2.62685 9.79905 2.57184 9.69041 2.53764 9.27173L0.544279 9.43459ZM0.5 7.3C0.5 8.20967 0.499992 8.89255 0.544279 9.43459L2.53764 9.27173C2.50156 8.83022 2.5 8.2435 2.5 7.3H0.5ZM0.5 5.7V7.3H2.5V5.7H0.5ZM0.544279 3.56541C0.499992 4.10745 0.5 4.79033 0.5 5.7H2.5C2.5 4.7565 2.50156 4.16978 2.53764 3.72827L0.544279 3.56541ZM0.854229 2.27453C0.676994 2.62237 0.588523 3.02388 0.544279 3.56541L2.53764 3.72827C2.57184 3.30959 2.62685 3.20095 2.63624 3.18251L0.854229 2.27453ZM2.27453 0.854229C1.663 1.16582 1.16582 1.663 0.854229 2.27453L2.63624 3.18251C2.75608 2.94731 2.94731 2.75608 3.18251 2.63624L2.27453 0.854229ZM3.56541 0.544279C3.02388 0.588523 2.62237 0.676994 2.27453 0.854229L3.18251 2.63624C3.20095 2.62685 3.30959 2.57184 3.72827 2.53764L3.56541 0.544279ZM5.7 0.5C4.79033 0.5 4.10745 0.499992 3.56541 0.544279L3.72827 2.53764C4.16978 2.50156 4.7565 2.5 5.7 2.5V0.5ZM-0.0367777 1.82054C-0.297693 2.33261 -0.403069 2.88019 -0.4524 3.48397C-0.500778 4.07609 -0.5 4.80642 -0.5 5.7H1.5C1.5 4.77341 1.50078 4.13862 1.54096 3.64684C1.58018 3.16673 1.65192 2.91166 1.74524 2.72852L-0.0367777 1.82054ZM1.82054 -0.0367777C1.02085 0.370684 0.370684 1.02085 -0.0367777 1.82054L1.74524 2.72852C1.96095 2.30516 2.30516 1.96095 2.72852 1.74524L1.82054 -0.0367777ZM5.7 -0.5C4.80642 -0.5 4.07609 -0.500778 3.48397 -0.4524C2.88019 -0.403069 2.33261 -0.297693 1.82054 -0.0367777L2.72852 1.74524C2.91166 1.65192 3.16673 1.58018 3.64684 1.54096C4.13862 1.50078 4.77341 1.5 5.7 1.5V-0.5ZM19.3 -0.5H5.7V1.5H19.3V-0.5ZM23.1795 -0.0367777C22.6674 -0.297693 22.1198 -0.403069 21.516 -0.4524C20.9239 -0.500778 20.1936 -0.5 19.3 -0.5V1.5C20.2266 1.5 20.8614 1.50078 21.3532 1.54096C21.8333 1.58018 22.0883 1.65192 22.2715 1.74524L23.1795 -0.0367777ZM25.0368 1.82054C24.6293 1.02085 23.9791 0.370684 23.1795 -0.0367776L22.2715 1.74524C22.6948 1.96095 23.039 2.30516 23.2548 2.72852L25.0368 1.82054ZM25.5 5.7C25.5 4.80642 25.5008 4.07609 25.4524 3.48397C25.4031 2.88019 25.2977 2.33261 25.0368 1.82054L23.2548 2.72852C23.3481 2.91166 23.4198 3.16673 23.459 3.64684C23.4992 4.13862 23.5 4.77341 23.5 5.7H25.5ZM25.5 7.3V5.7H23.5V7.3H25.5ZM25.0368 11.1795C25.2977 10.6674 25.4031 10.1198 25.4524 9.51603C25.5008 8.92391 25.5 8.19358 25.5 7.3H23.5C23.5 8.22659 23.4992 8.86138 23.459 9.35316C23.4198 9.83327 23.3481 10.0883 23.2548 10.2715L25.0368 11.1795ZM23.1795 13.0368C23.9791 12.6293 24.6293 11.9791 25.0368 11.1795L23.2548 10.2715C23.039 10.6948 22.6948 11.039 22.2715 11.2548L23.1795 13.0368ZM19.3 13.5C20.1936 13.5 20.9239 13.5008 21.516 13.4524C22.1198 13.4031 22.6674 13.2977 23.1795 13.0368L22.2715 11.2548C22.0883 11.3481 21.8333 11.4198 21.3532 11.459C20.8614 11.4992 20.2266 11.5 19.3 11.5V13.5ZM5.7 13.5H19.3V11.5H5.7V13.5ZM1.82054 13.0368C2.33261 13.2977 2.88019 13.4031 3.48397 13.4524C4.07609 13.5008 4.80642 13.5 5.7 13.5V11.5C4.77341 11.5 4.13862 11.4992 3.64684 11.459C3.16673 11.4198 2.91166 11.3481 2.72852 11.2548L1.82054 13.0368ZM-0.0367776 11.1795C0.370684 11.9791 1.02085 12.6293 1.82054 13.0368L2.72852 11.2548C2.30516 11.039 1.96095 10.6948 1.74524 10.2715L-0.0367776 11.1795ZM-0.5 7.3C-0.5 8.19358 -0.500778 8.92391 -0.4524 9.51603C-0.403069 10.1198 -0.297693 10.6674 -0.0367777 11.1795L1.74524 10.2715C1.65192 10.0883 1.58018 9.83327 1.54096 9.35316C1.50078 8.86138 1.5 8.22659 1.5 7.3H-0.5ZM-0.5 5.7V7.3H1.5V5.7H-0.5ZM25.2507 5.53145C25.6823 5.64251 26 6.03541 26 6.5H28C28 5.10075 27.043 3.92755 25.7493 3.59457L25.2507 5.53145ZM26.5 8.43699V4.56301H24.5V8.43699H26.5ZM26 6.5C26 6.96459 25.6823 7.35749 25.2507 7.46855L25.7493 9.40543C27.043 9.07245 28 7.89925 28 6.5H26Z" fill="black" mask="url(#path-1-inside-1_107_11)"/>
</g>
<rect id="Capacity" x="2.5" y="2.5" width="20" height="8" rx="1.5" fill="black"/>
</g>
</svg>
