<svg width="66" height="66" viewBox="0 0 66 66" fill="none" xmlns="http://www.w3.org/2000/svg">
<g id="Bluetooth">
<rect width="66" height="66" rx="33" fill="#007AFF"/>
<path id="Vector" fill-rule="evenodd" clip-rule="evenodd" d="M34.6432 29.308V21.3864L39.5181 25.381L34.6432 29.308ZM34.6432 45.7269V37.8052L39.5181 41.7322L34.6432 45.7269ZM30.5469 49.146C30.5469 51.3804 33.3568 52.2267 35.1848 50.6694L43.2419 43.8311C43.9867 43.2217 44.3252 42.4092 44.3252 41.5968C44.3252 40.7843 43.9528 39.9718 43.2081 39.3963L35.9296 33.5397L43.2081 27.6831C43.9528 27.0737 44.2914 26.2612 44.3252 25.4826C44.3252 24.704 43.9867 23.8915 43.2419 23.2483L35.1848 16.4438C33.3229 14.8527 30.5469 15.7329 30.5469 17.9672V29.5111L25.0966 25.0087C24.6903 24.6701 24.2164 24.5009 23.7086 24.5009C22.5914 24.5009 21.7112 25.381 21.7112 26.4982C21.7112 27.1076 21.9482 27.7169 22.5237 28.157L29.2605 33.5735L22.5237 38.9901C21.9482 39.4302 21.7112 40.0395 21.7112 40.6489C21.7112 41.8676 22.6253 42.6462 23.7086 42.6462C24.1825 42.6462 24.6903 42.4769 25.0966 42.1384L30.5469 37.6359V49.146Z" fill="white"/>
</g>
</svg>
