<svg width="44" height="40" viewBox="0 0 44 40" fill="none" xmlns="http://www.w3.org/2000/svg">
<g id="Speaker">
<path id="&#244;&#128;&#138;&#167;" d="M26.8356 40C26.2142 40 25.6255 39.8765 25.0695 39.6296C24.5135 39.3972 23.933 39.0268 23.3279 38.5184L13.0744 29.8905C12.9109 29.7743 12.7228 29.7162 12.5102 29.7162H5.54375C3.76124 29.7162 2.38757 29.2804 1.42273 28.4089C0.474244 27.5374 0 26.252 0 24.5525V16.4693C0 14.7844 0.474244 13.5061 1.42273 12.6346C2.38757 11.7631 3.76124 11.3274 5.54375 11.3274H12.5102C12.7228 11.3274 12.9109 11.262 13.0744 11.1313L23.3279 2.61229C24.0147 2.04581 24.6116 1.63911 25.1186 1.39218C25.6255 1.13073 26.1815 1 26.7866 1C27.7351 1 28.5037 1.28324 29.0924 1.84972C29.6975 2.4162 30 3.10615 30 3.91955V37.1894C30 37.9883 29.7056 38.6564 29.1169 39.1939C28.5282 39.7313 27.7678 40 26.8356 40Z" fill="#6D6D6D"/>
</g>
</svg>
