<svg width="66" height="66" viewBox="0 0 66 66" fill="none" xmlns="http://www.w3.org/2000/svg">
<g id="1x1 - Screen Sharing">
<rect width="66" height="66" rx="33" fill="#333333" fill-opacity="0.35"/>
<rect width="66" height="66" rx="33" fill="black" fill-opacity="0.2" style="mix-blend-mode:plus-darker"/>
<path id="&#244;&#128;&#143;&#167;" d="M22.5449 39.9922C21.2542 39.9922 20.2697 39.656 19.5914 38.9837C18.9191 38.3114 18.5829 37.3359 18.5829 36.0572V24.9007C18.5829 23.622 18.9191 22.6496 19.5914 21.9832C20.2697 21.3109 21.2542 20.9747 22.5449 20.9747H38.4468C39.7314 20.9747 40.7099 21.3109 41.3822 21.9832C42.0606 22.6556 42.3997 23.6281 42.3997 24.9007V27.575H39.7434V25.2068C39.7434 24.6726 39.6083 24.2764 39.3382 24.0182C39.0681 23.7601 38.6809 23.6311 38.1766 23.6311H22.806C22.3017 23.6311 21.9145 23.7601 21.6444 24.0182C21.3803 24.2764 21.2482 24.6726 21.2482 25.2068V35.7511C21.2482 36.2854 21.3803 36.6815 21.6444 36.9397C21.9145 37.1978 22.3017 37.3269 22.806 37.3269H25.7595V39.9922H22.5449Z" fill="white" fill-opacity="0.5"/>
<path id="&#244;&#128;&#143;&#167;_2" d="M28.5148 45.611C27.2302 45.611 26.2487 45.2748 25.5703 44.6025C24.898 43.9301 24.5618 42.9576 24.5618 41.685V30.5195C24.5618 29.2468 24.898 28.2743 25.5703 27.602C26.2487 26.9297 27.2302 26.5935 28.5148 26.5935H44.4167C45.7013 26.5935 46.6828 26.9297 47.3612 27.602C48.0395 28.2743 48.3787 29.2468 48.3787 30.5195V41.685C48.3787 42.9576 48.0395 43.9301 47.3612 44.6025C46.6828 45.2748 45.7013 45.611 44.4167 45.611H28.5148ZM28.7849 42.9456H44.1556C44.6598 42.9456 45.044 42.8166 45.3082 42.5585C45.5783 42.3003 45.7134 41.9071 45.7134 41.3789V30.8346C45.7134 30.3004 45.5783 29.9042 45.3082 29.646C45.044 29.3879 44.6598 29.2588 44.1556 29.2588H28.7849C28.2747 29.2588 27.8875 29.3879 27.6234 29.646C27.3592 29.9042 27.2272 30.3004 27.2272 30.8346V41.3789C27.2272 41.9071 27.3592 42.3003 27.6234 42.5585C27.8875 42.8166 28.2747 42.9456 28.7849 42.9456Z" fill="white"/>
</g>
</svg>
