<svg width="15" height="11" viewBox="0 0 15 11" fill="none" xmlns="http://www.w3.org/2000/svg">
<g id="Combined Shape">
<path d="M12.9513 4.746C13.0648 4.8525 13.2398 4.853 13.3503 4.743L14.4143 3.679C14.5288 3.564 14.5293 3.3745 14.4113 3.263C12.6023 1.5505 10.1608 0.5 7.47335 0.5C4.78585 0.5 2.34435 1.5505 0.535345 3.263C0.417345 3.3745 0.417845 3.564 0.532345 3.679L1.59635 4.743C1.70685 4.853 1.88185 4.8525 1.99535 4.746C3.42985 3.4015 5.35685 2.577 7.47335 2.577C9.58984 2.577 11.5168 3.4015 12.9513 4.746Z" fill="black"/>
<path d="M10.5045 7.19645C10.62 7.29945 10.7925 7.30045 10.902 7.19095L11.9645 6.12845C12.08 6.01295 12.0805 5.82045 11.9605 5.70995C10.7795 4.62445 9.20397 3.96145 7.47347 3.96145C5.74297 3.96145 4.16747 4.62445 2.98647 5.70995C2.86647 5.82045 2.86697 6.01295 2.98247 6.12845L4.04497 7.19095C4.15447 7.30045 4.32697 7.29945 4.44247 7.19645C5.24847 6.47695 6.31047 6.03845 7.47347 6.03845C8.63647 6.03845 9.69847 6.47695 10.5045 7.19645Z" fill="black"/>
<path d="M9.50832 8.1611C9.63382 8.2661 9.63282 8.4616 9.51682 8.5776L7.67882 10.4156C7.56632 10.5281 7.38332 10.5281 7.27082 10.4156L5.43282 8.5776C5.31682 8.4616 5.31532 8.2661 5.44132 8.1611C5.99182 7.7006 6.70082 7.4231 7.47482 7.4231C8.24882 7.4231 8.95732 7.7006 9.50832 8.1611Z" fill="black"/>
</g>
</svg>
