<svg width="18" height="11" viewBox="0 0 18 11" fill="none" xmlns="http://www.w3.org/2000/svg">
<g id="Combined Shape">
<path d="M14.5228 1.11732C14.4467 1.30109 14.4467 1.53406 14.4467 2V9C14.4467 9.46594 14.4467 9.69891 14.5228 9.88268C14.6243 10.1277 14.8189 10.3224 15.064 10.4239C15.2477 10.5 15.4807 10.5 15.9467 10.5C16.4126 10.5 16.6456 10.5 16.8293 10.4239C17.0744 10.3224 17.269 10.1277 17.3705 9.88268C17.4467 9.69891 17.4467 9.46594 17.4467 9V2C17.4467 1.53406 17.4467 1.30109 17.3705 1.11732C17.269 0.872288 17.0744 0.677614 16.8293 0.57612C16.6456 0.5 16.4126 0.5 15.9467 0.5C15.4807 0.5 15.2477 0.5 15.064 0.57612C14.8189 0.677614 14.6243 0.872288 14.5228 1.11732Z" fill="black"/>
<path d="M9.94666 4C9.94666 3.53406 9.94666 3.30109 10.0228 3.11732C10.1243 2.87229 10.3189 2.67761 10.564 2.57612C10.7477 2.5 10.9807 2.5 11.4467 2.5C11.9126 2.5 12.1456 2.5 12.3293 2.57612C12.5744 2.67761 12.769 2.87229 12.8705 3.11732C12.9467 3.30109 12.9467 3.53406 12.9467 4V9C12.9467 9.46594 12.9467 9.69891 12.8705 9.88268C12.769 10.1277 12.5744 10.3224 12.3293 10.4239C12.1456 10.5 11.9126 10.5 11.4467 10.5C10.9807 10.5 10.7477 10.5 10.564 10.4239C10.3189 10.3224 10.1243 10.1277 10.0228 9.88268C9.94666 9.69891 9.94666 9.46594 9.94666 9V4Z" fill="black"/>
<path d="M5.52278 5.11732C5.44666 5.30109 5.44666 5.53406 5.44666 6V9C5.44666 9.46594 5.44666 9.69891 5.52278 9.88268C5.62427 10.1277 5.81894 10.3224 6.06397 10.4239C6.24774 10.5 6.48071 10.5 6.94666 10.5C7.4126 10.5 7.64557 10.5 7.82934 10.4239C8.07437 10.3224 8.26904 10.1277 8.37053 9.88268C8.44666 9.69891 8.44666 9.46594 8.44666 9V6C8.44666 5.53406 8.44666 5.30109 8.37053 5.11732C8.26904 4.87229 8.07437 4.67761 7.82934 4.57612C7.64557 4.5 7.4126 4.5 6.94666 4.5C6.48071 4.5 6.24774 4.5 6.06397 4.57612C5.81894 4.67761 5.62427 4.87229 5.52278 5.11732Z" fill="black"/>
<path d="M1.02278 6.61732C0.946655 6.80109 0.946655 7.03406 0.946655 7.5V9C0.946655 9.46594 0.946655 9.69891 1.02278 9.88268C1.12427 10.1277 1.31894 10.3224 1.56397 10.4239C1.74774 10.5 1.98071 10.5 2.44666 10.5C2.9126 10.5 3.14557 10.5 3.32934 10.4239C3.57437 10.3224 3.76904 10.1277 3.87053 9.88268C3.94666 9.69891 3.94666 9.46594 3.94666 9V7.5C3.94666 7.03406 3.94666 6.80109 3.87053 6.61732C3.76904 6.37229 3.57437 6.17761 3.32934 6.07612C3.14557 6 2.9126 6 2.44666 6C1.98071 6 1.74774 6 1.56397 6.07612C1.31894 6.17761 1.12427 6.37229 1.02278 6.61732Z" fill="black"/>
</g>
</svg>
