<svg width="66" height="66" viewBox="0 0 66 66" fill="none" xmlns="http://www.w3.org/2000/svg">
<g id="Sun">
<path id="&#244;&#128;&#134;&#174;" opacity="0.5" d="M33.0148 12.1104C32.1843 12.1104 31.4822 11.8143 30.9088 11.2221C30.3353 10.6299 30.0485 9.92912 30.0485 9.11979V2.96097C30.0485 2.15164 30.3353 1.46074 30.9088 0.888291C31.4822 0.296097 32.1843 0 33.0148 0C33.8058 0 34.4881 0.296097 35.0616 0.888291C35.6548 1.46074 35.9515 2.15164 35.9515 2.96097V9.11979C35.9515 9.92912 35.6548 10.6299 35.0616 11.2221C34.4881 11.8143 33.8058 12.1104 33.0148 12.1104ZM47.787 18.2692C47.2135 17.7165 46.9267 17.0256 46.9267 16.1965C46.9267 15.3674 47.2135 14.6667 47.787 14.0942L52.1771 9.71198C52.7308 9.13952 53.4229 8.8533 54.2535 8.8533C55.084 8.83356 55.7861 9.10991 56.3596 9.68237C56.933 10.2548 57.2198 10.9556 57.2198 11.7847C57.2198 12.6137 56.933 13.3145 56.3596 13.8869L51.9991 18.2692C51.4256 18.8614 50.7236 19.1575 49.893 19.1575C49.0625 19.1377 48.3604 18.8416 47.787 18.2692ZM53.8975 33.0148C53.8975 32.2055 54.1843 31.5146 54.7578 30.9421C55.351 30.3499 56.0629 30.0538 56.8935 30.0538H63.0337C63.8445 30.0538 64.5366 30.3499 65.1101 30.9421C65.7034 31.5146 66 32.2055 66 33.0148C66 33.8241 65.7034 34.515 65.1101 35.0875C64.5366 35.6599 63.8445 35.9462 63.0337 35.9462H56.8935C56.0629 35.9462 55.351 35.6599 54.7578 35.0875C54.1843 34.515 53.8975 33.8241 53.8975 33.0148ZM47.787 47.7604C48.3407 47.2077 49.0328 46.9314 49.8634 46.9314C50.6939 46.9314 51.396 47.2077 51.9694 47.7604L56.3596 52.1427C56.933 52.6954 57.2198 53.3863 57.2198 54.2153C57.2198 55.0444 56.9429 55.7452 56.3892 56.3176C55.8157 56.8703 55.1137 57.1467 54.2831 57.1467C53.4526 57.1664 52.7604 56.9098 52.2067 56.3769L47.787 51.9354C47.2135 51.3827 46.9267 50.7017 46.9267 49.8923C46.9267 49.0633 47.2135 48.3526 47.787 47.7604ZM33.0148 53.9192C33.8058 53.9192 34.4881 54.2055 35.0616 54.7779C35.6548 55.3701 35.9515 56.0709 35.9515 56.8802V63.039C35.9515 63.8484 35.6548 64.5393 35.0616 65.1117C34.4881 65.7039 33.8058 66 33.0148 66C32.1843 66 31.4822 65.7039 30.9088 65.1117C30.3353 64.5393 30.0485 63.8484 30.0485 63.039V56.8802C30.0485 56.0709 30.3353 55.3701 30.9088 54.7779C31.4822 54.2055 32.1843 53.9192 33.0148 53.9192ZM18.213 47.7604C18.7667 48.3526 19.0436 49.0633 19.0436 49.8923C19.0436 50.7017 18.7569 51.3827 18.1834 51.9354L13.7933 56.3472C13.2396 56.8802 12.5375 57.1368 11.6872 57.1171C10.8566 57.1171 10.1546 56.8407 9.58112 56.288C9.04719 55.7156 8.78022 55.0148 8.78022 54.1857C8.78022 53.3567 9.06697 52.6658 9.64045 52.1131L14.0009 47.7604C14.5744 47.2077 15.2764 46.9314 16.107 46.9314C16.9375 46.9314 17.6395 47.2077 18.213 47.7604ZM12.1025 33.0148C12.1025 33.8241 11.8058 34.515 11.2126 35.0875C10.6193 35.6599 9.9173 35.9462 9.10652 35.9462H2.93663C2.14562 35.9462 1.45348 35.6599 0.860225 35.0875C0.286742 34.515 0 33.8241 0 33.0148C0 32.2055 0.286742 31.5146 0.860225 30.9421C1.45348 30.3499 2.14562 30.0538 2.93663 30.0538H9.10652C9.9173 30.0538 10.6193 30.3499 11.2126 30.9421C11.8058 31.5146 12.1025 32.2055 12.1025 33.0148ZM18.1834 18.2692C17.6099 18.8416 16.9079 19.1279 16.0773 19.1279C15.2665 19.1279 14.5744 18.8416 14.0009 18.2692L9.64045 13.8573C9.08674 13.3046 8.80989 12.6137 8.80989 11.7847C8.80989 10.9556 9.09663 10.2548 9.67011 9.68237C10.2436 9.10991 10.9456 8.83356 11.7762 8.8533C12.6067 8.87304 13.2989 9.15926 13.8526 9.71198L18.213 14.0942C18.7667 14.6469 19.0436 15.3477 19.0436 16.1965C19.0436 17.0256 18.7569 17.7165 18.1834 18.2692Z" fill="#FFCC00"/>
<path id="&#244;&#128;&#134;&#174;_2" d="M32.9851 48.4709C30.8494 48.4709 28.8422 48.0761 26.9636 47.2865C25.0849 46.4772 23.4337 45.3718 22.0099 43.9703C20.6058 42.549 19.4984 40.9007 18.6876 39.0254C17.8966 37.1502 17.5011 35.1466 17.5011 33.0147C17.5011 30.863 17.8966 28.8595 18.6876 27.0039C19.4984 25.1286 20.6058 23.4902 22.0099 22.0887C23.4337 20.6674 25.0849 19.5521 26.9636 18.7428C28.8422 17.9335 30.8494 17.5288 32.9851 17.5288C35.1209 17.5288 37.1281 17.9335 39.0067 18.7428C40.8854 19.5521 42.5267 20.6674 43.9308 22.0887C45.3546 23.4902 46.462 25.1286 47.253 27.0039C48.0638 28.8595 48.4692 30.863 48.4692 33.0147C48.4692 35.1466 48.0638 37.1502 47.253 39.0254C46.462 40.9007 45.3546 42.549 43.9308 43.9703C42.5267 45.3718 40.8854 46.4772 39.0067 47.2865C37.1281 48.0761 35.1209 48.4709 32.9851 48.4709Z" fill="#FFCC00"/>
</g>
</svg>
